<?xml version="1.0" encoding="UTF-8"?>
<svg width="43px" height="43px" viewBox="0 0 43 43" version="1.1" xmlns="http://www.w3.org/2000/svg" xmlns:xlink="http://www.w3.org/1999/xlink">
    <title>gh-icon</title>
    <g id="Page-1" stroke="none" stroke-width="1" fill="none" fill-rule="evenodd">
        <g id="Home---Desktop" transform="translate(-665.000000, -4981.000000)" fill="#050416" fill-rule="nonzero">
            <g id="Footer" transform="translate(0.000000, 4891.000000)">
                <g id="Social_Icons" transform="translate(665.000000, 90.000000)">
                    <g id="Social">
                        <g id="gh-icon">
                            <path d="M21.12,0 C9.51231443,0 0,9.59481443 0,21.2025 C0,32.742832 9.425625,42.24 21.12,42.24 C32.7998731,42.24 42.24,32.7570118 42.24,21.2025 C42.24,9.59481443 32.7276856,0 21.12,0 Z M24.8325,39.39375 C23.6446289,39.64125 22.3823144,39.765 21.12,39.765 C19.8576856,39.765 18.5953711,39.64125 17.4075,39.39375 L17.4075,33.6023144 C17.4075,32.21625 17.77875,31.72125 18.27375,31.0528711 C18.5257618,30.7647656 18.6778711,30.5063086 19.8080566,28.8008789 L17.9025,28.50375 C13.0018066,27.7860644 11.0714356,25.2366211 10.3041211,23.2566211 C9.31412113,20.6085644 9.83393557,17.2918066 11.6160644,15.1883789 C11.8883789,14.8664356 12.1110644,14.3218066 11.9131934,13.7526856 C11.5416211,12.6141211 11.59125,10.8075 11.83875,10.1143066 C13.1510156,10.3018653 14.5003418,11.2419141 15.6256934,11.92125 C16.1442187,12.2238574 16.4162109,12.1439356 16.665,12.16875 C17.5692774,11.9805469 18.979834,11.5251856 21.1448144,11.5251856 C22.48125,11.5251856 23.8921289,11.7230566 25.2781934,12.1191211 C25.5260156,12.1133203 25.9243359,12.324082 26.6146289,11.92125 C27.7908984,11.2045313 29.0944629,10.296709 30.40125,10.1143066 C30.64875,10.8075 30.6983789,12.6141211 30.3271289,13.7526856 C30.1289356,14.3218066 30.3516211,14.8664356 30.6242578,15.1883789 C32.4060644,17.2921289 32.9258789,20.6085644 31.9358789,23.2566211 C31.1685644,25.2366211 29.2381934,27.7860644 24.3375,28.50375 L22.4319434,28.8008789 C23.6001562,30.5636719 23.7232618,30.7750781 23.9665722,31.0528711 C24.46125,31.72125 24.8325,32.21625 24.8325,33.6023144 L24.8325,39.39375 Z M27.3075,38.6760644 L27.3075,33.6023144 C27.3075,32.1914356 27.0103711,31.2510644 26.6143066,30.5578711 C30.3764356,29.5433789 33.0496289,27.3155566 34.2375,24.1228711 C35.4998144,20.7571289 34.9306934,16.7475 32.8266211,13.9753711 C33.1981934,12.3173144 33.1981934,9.66893557 32.3071289,8.43143557 C31.9110644,7.88712887 31.3664356,7.59 30.6735644,7.59 C30.64875,7.59 30.64875,7.59 30.64875,7.59 C28.7296582,7.69376949 27.2191993,8.66024412 25.5998144,9.64412114 C24.1148144,9.24805662 22.605,9.05018557 21.0951856,9.05018557 C19.5608789,9.05018557 18.02625,9.27287114 16.6653222,9.64412114 C14.9605371,8.61609375 13.4645801,7.69119137 11.4923144,7.59 C10.8735644,7.59 10.3289356,7.88712887 9.93287113,8.43143557 C9.04212886,9.66893557 9.04212886,12.3173144 9.41337886,13.9753711 C7.30930662,16.7475 6.74018557,20.7816211 8.0025,24.1228711 C9.19037113,27.3155566 11.8635644,29.5433789 15.6256934,30.5578711 C15.3185743,31.0950879 15.0755859,31.7882813 14.9798731,32.7263965 C14.2199707,32.9883984 13.5609375,33.0737988 12.9479882,32.8936524 C12.3015234,32.7025488 11.7978222,32.2710351 11.3601856,31.5349805 C10.3772754,29.8836914 8.70310551,28.5356543 6.79690432,28.7109668 L7.01443363,31.1762988 C7.89711912,31.0954101 8.77561525,32.0293359 9.23194338,32.7992285 C9.98475588,34.0670215 10.9989257,34.8984668 12.2470606,35.2671387 C13.1735743,35.5400976 14.0204882,35.5336524 14.9325,35.3390039 L14.9325,38.6760644 C7.73018557,36.1514356 2.475,29.2710644 2.475,21.2025 C2.475,10.9560644 10.8735644,2.475 21.12,2.475 C31.3664356,2.475 39.765,10.9560644 39.765,21.2025 C39.765,29.2710644 34.5098144,36.1514356 27.3075,38.6760644 Z" id="Shape"></path>
                        </g>
                    </g>
                </g>
            </g>
        </g>
    </g>
</svg>