<?xml version="1.0" encoding="UTF-8"?>
<svg width="44px" height="43px" viewBox="0 0 44 43" version="1.1" xmlns="http://www.w3.org/2000/svg" xmlns:xlink="http://www.w3.org/1999/xlink">
    <title>linkedin-icon</title>
    <g id="Page-1" stroke="none" stroke-width="1" fill="none" fill-rule="evenodd">
        <g id="Home---Desktop" transform="translate(-731.000000, -4981.000000)" fill="#050416" fill-rule="nonzero">
            <g id="Footer" transform="translate(0.000000, 4891.000000)">
                <g id="Social_Icons" transform="translate(665.000000, 90.000000)">
                    <g id="Social">
                        <g id="linkedin-icon" transform="translate(66.560000, 0.000000)">
                            <path d="M21.12,-2.92743607e-13 C9.47437245,-2.92743607e-13 -1.98951966e-14,9.47437245 -1.98951966e-14,21.12 C-1.98951966e-14,32.7656276 9.47437245,42.24 21.12,42.24 C32.7656276,42.24 42.24,32.7656276 42.24,21.12 C42.24,9.47437245 32.7656276,-2.92743607e-13 21.12,-2.92743607e-13 Z M21.12,39.8236162 C10.8067396,39.8236162 2.41638381,31.4331261 2.41638381,21.12 C2.41638381,10.8068739 10.8067396,2.41638381 21.12,2.41638381 C31.4332604,2.41638381 39.8236162,10.8068739 39.8236162,21.12 C39.8236162,31.4331261 31.4332604,39.8236162 21.12,39.8236162 Z" id="Shape"></path>
                            <path d="M15.36,16.64 C14.6530133,16.64 14.08,17.1980453 14.08,17.8865644 L14.08,28.1934356 C14.08,28.8819547 14.6530133,29.44 15.36,29.44 C16.0669867,29.44 16.64,28.8819547 16.64,28.1934356 L16.64,17.8865644 C16.64,17.1980453 16.0669867,16.64 15.36,16.64 Z" id="Path"></path>
                            <path d="M15.36,11.52 C15.0229333,11.52 14.6929778,11.6565333 14.4554667,11.8954667 C14.2165333,12.1329778 14.08,12.4629333 14.08,12.8 C14.08,13.1370667 14.2165333,13.46688 14.4554667,13.7059556 C14.6929778,13.9434667 15.0229333,14.08 15.36,14.08 C15.6970667,14.08 16.0270222,13.9434667 16.2645333,13.7059556 C16.5034667,13.46688 16.64,13.1370667 16.64,12.8 C16.64,12.4629333 16.5034667,12.1329778 16.2645333,11.8954667 C16.0270222,11.6565333 15.6970667,11.52 15.36,11.52 Z" id="Path"></path>
                            <path d="M24.96,17.5890118 C23.705452,17.5890118 22.5442627,18.0006118 21.5972254,18.6965086 L21.5972254,17.860158 C21.5972254,17.1862241 21.0606465,16.64 20.3986127,16.64 C19.736579,16.64 19.2,17.1862241 19.2,17.860158 L19.2,27.9486957 C19.2,28.6226297 19.736579,29.1688538 20.3986127,29.1688538 C21.0606465,29.1688538 21.5972254,28.6226297 21.5972254,27.9486957 L21.5972254,23.452549 C21.5972254,21.5649645 23.1057461,20.0293279 24.96,20.0293279 C26.8142539,20.0293279 28.3227746,21.5649645 28.3227746,23.452549 L28.3227746,28.219842 C28.3227746,28.8937759 28.8593535,29.44 29.5213873,29.44 C30.183421,29.44 30.72,28.8937759 30.72,28.219842 L30.72,23.452549 C30.72,20.2194014 28.1360573,17.5890118 24.96,17.5890118 Z" id="Path"></path>
                        </g>
                    </g>
                </g>
            </g>
        </g>
    </g>
</svg>