<?xml version="1.0" encoding="UTF-8"?>
<svg width="88px" height="89px" viewBox="0 0 88 89" version="1.1" xmlns="http://www.w3.org/2000/svg" xmlns:xlink="http://www.w3.org/1999/xlink">
    <title>ev-logo</title>
    <defs>
        <linearGradient x1="80.2353884%" y1="93.6885944%" x2="14.8733641%" y2="0%" id="linearGradient-1">
            <stop stop-color="#557EE9" offset="0%"></stop>
            <stop stop-color="#1B0CA5" offset="100%"></stop>
        </linearGradient>
    </defs>
    <g id="ev-logo" stroke="none" stroke-width="1" fill="none" fill-rule="evenodd">
        <g transform="translate(0.000000, -7.000000)">
            <path d="M46.6802028,9.75005374 L78.4189997,28.0744567 C80.2947016,29.1573937 81.4501817,31.1587438 81.4501817,33.3246179 L81.4501817,69.9734237 C81.4501817,72.1392978 80.2947016,74.1406479 78.4189997,75.2235849 L46.6802028,93.5479879 C44.8045009,94.6309249 42.4935407,94.6309249 40.6178388,93.5479879 L8.87904194,75.2235849 C7.00333999,74.1406479 5.84785994,72.1392978 5.84785994,69.9734237 L5.84785994,33.3246179 C5.84785994,31.1587438 7.00333999,29.1573937 8.87904194,28.0744567 L40.6178388,9.75005374 C42.4935407,8.66711672 44.8045009,8.66711672 46.6802028,9.75005374 Z" id="Polygon" stroke="url(#linearGradient-1)" stroke-width="3.6374184" fill="#050416"></path>
            <g id="Group-6" transform="translate(14.000000, 0.000000)" fill="#FFFFFF">
                <path d="M14.8040813,65.6222408 C18.9730943,65.6222408 22.2087462,64.0666389 24.0132444,62.511037 C24.7599333,61.8887962 24.5732611,61.3910037 24.1376925,60.8932111 L22.3954184,58.5286962 C21.8976258,57.9064554 21.4620573,58.1553518 20.7153684,58.5909203 C19.4708869,59.3998333 17.4174924,60.3954185 15.1774257,60.3954185 C11.1328609,60.3954185 8.20832935,57.0975425 8.02165712,53.7374424 L24.9466055,53.7374424 C25.5066222,53.7374424 26.0044148,53.3018739 26.0666389,52.6796332 C26.1288629,52.2440646 26.191087,51.4351517 26.191087,50.9995831 C26.191087,44.3416071 21.213161,39.4881293 14.7418572,39.4881293 C7.27496822,39.4881293 2.29704222,45.5238645 2.29704222,52.555185 C2.29704222,59.7109536 7.27496822,65.6222408 14.8040813,65.6222408 Z M20.404248,49.8173257 L8.3327775,49.8173257 C8.70612195,46.7061219 11.3195331,44.279383 14.6796331,44.279383 C17.7286128,44.279383 20.2175758,46.8305701 20.404248,49.8173257 Z M41.1870891,65.6222408 C41.7471058,65.6222408 42.1204502,65.3111204 42.2448984,65 L53.2585596,41.5415237 C53.6319041,40.7326108 53.2585596,40.11037 52.3251985,40.11037 L49.4628911,40.11037 C48.7784262,40.11037 48.0939614,40.11037 47.7828411,40.7948348 L41.062641,55.4797165 L41.0004169,55.4797165 L41.0004169,55.4797165 L34.5291131,40.7948348 C34.3424409,40.4214904 34.0313205,40.11037 33.4090797,40.11037 L29.7378593,40.11037 C28.8044982,40.11037 28.4311537,40.7326108 28.8044982,41.5415237 L39.8181594,65 C39.9426076,65.3111204 40.315952,65.6222408 40.8759687,65.6222408 L41.1870891,65.6222408 Z" id="ev" fill-rule="nonzero"></path>
                <rect id="Rectangle" x="52.4" y="59" width="6.3" height="6.3" rx="1.515591"></rect>
            </g>
        </g>
    </g>
</svg>